<?xml version="1.0" standalone="no"?>
<!DOCTYPE svg PUBLIC "-//W3C//DTD SVG 20010904//EN"
 "http://www.w3.org/TR/2001/REC-SVG-20010904/DTD/svg10.dtd">
<svg version="1.0" xmlns="http://www.w3.org/2000/svg"
 width="112.000000pt" height="76.000000pt" viewBox="0 0 112.000000 76.000000"
 preserveAspectRatio="xMidYMid meet">
<metadata>
Created by potrace 1.14, written by Peter Selinger 2001-2017
</metadata>
<g transform="translate(0.000000,76.000000) scale(0.100000,-0.100000)"
fill="#000000" stroke="none">
<path d="M417 591 c-3 -14 -1 -18 9 -14 16 6 18 19 5 27 -5 3 -11 -3 -14 -13z"/>
<path d="M483 584 c-53 -19 -70 -29 -66 -40 4 -11 9 -12 19 -3 8 6 14 8 14 3
0 -4 6 1 14 12 13 17 27 19 121 19 l107 0 29 -33 c16 -18 30 -27 30 -20 3 29
-3 44 -27 66 -36 31 -142 30 -241 -4z"/>
<path d="M759 577 c7 -10 13 -36 13 -60 -1 -32 4 -46 18 -55 19 -11 20 -9 20
29 0 48 -12 74 -43 90 -20 11 -21 11 -8 -4z"/>
<path d="M350 570 c0 -5 5 -10 10 -10 6 0 10 5 10 10 0 6 -4 10 -10 10 -5 0
-10 -4 -10 -10z"/>
<path d="M713 444 c-39 -19 -60 -63 -43 -93 16 -30 79 -29 108 2 54 58 6 126
-65 91z m47 -28 c0 -29 -20 -66 -35 -66 -17 0 -20 32 -5 61 12 22 40 26 40 5z"/>
<path d="M827 443 c-3 -10 -8 -31 -12 -48 -3 -16 -8 -38 -11 -47 -7 -24 41
-25 50 -2 6 16 8 16 24 0 10 -9 29 -16 41 -16 23 0 23 1 6 26 -16 25 -16 27 4
41 44 30 14 63 -58 63 -29 0 -41 -5 -44 -17z m73 -24 c0 -5 -7 -9 -15 -9 -15
0 -20 12 -9 23 8 8 24 -1 24 -14z"/>
<path d="M966 433 c4 -16 7 -45 6 -65 -1 -31 2 -38 17 -38 14 0 22 10 27 32 3
18 18 47 32 65 24 32 17 48 -8 18 -7 -8 -16 -15 -21 -15 -5 0 -9 7 -9 15 0 9
-10 15 -26 15 -24 0 -25 -2 -18 -27z"/>
<path d="M339 438 c-9 -7 -20 -30 -23 -51 -4 -21 -10 -45 -13 -53 -3 -8 1 -14
10 -14 8 0 18 12 22 28 l7 27 22 -27 c29 -38 53 -36 65 5 5 17 10 25 10 16 2
-29 35 -49 83 -49 43 0 47 2 53 30 8 37 0 50 -30 50 -29 0 -41 -16 -21 -27 20
-11 3 -38 -18 -30 -18 7 -20 25 -6 61 8 22 16 26 49 26 22 0 43 5 46 10 4 6
-13 10 -45 10 -44 0 -56 -4 -82 -31 l-31 -30 6 30 c5 22 3 31 -7 31 -7 0 -16
-14 -20 -32 l-6 -32 -28 33 c-23 28 -29 30 -43 19z"/>
<path d="M606 435 c-3 -8 -8 -37 -12 -65 l-7 -50 32 0 c21 0 31 5 31 15 0 8
-4 15 -9 15 -5 0 -5 16 0 38 5 20 9 43 9 50 0 17 -37 15 -44 -3z"/>
<path d="M72 428 c-19 -19 -14 -57 8 -70 28 -18 25 -28 -10 -28 -16 0 -30 -4
-30 -10 0 -18 76 -11 93 8 22 24 21 35 -3 57 -28 25 -25 35 11 35 30 0 31 -1
25 -35 -5 -27 -2 -39 14 -55 25 -25 43 -25 81 -3 36 21 67 105 42 111 -27 7
-40 -6 -46 -46 -8 -46 -33 -74 -43 -48 -3 9 -2 34 4 55 l9 39 -71 1 c-43 0
-77 -4 -84 -11z"/>
<path d="M730 299 c0 -7 -10 -9 -25 -5 -22 6 -25 3 -25 -22 0 -21 5 -28 20
-28 13 0 20 7 20 19 0 10 4 16 10 12 5 -3 7 -11 4 -19 -3 -7 2 -13 11 -13 8 0
15 9 15 19 0 10 -4 18 -10 18 -5 0 -10 4 -10 10 0 5 8 7 18 4 14 -5 15 -4 2 5
-19 14 -30 14 -30 0z"/>
<path d="M807 303 c-2 -5 0 -21 4 -38 7 -29 7 -29 8 8 1 35 -3 46 -12 30z"/>
<path d="M832 278 c2 -19 9 -32 19 -34 28 -4 42 12 35 40 -5 19 -13 26 -32 26
-22 0 -25 -4 -22 -32z"/>
<path d="M930 280 c0 -28 2 -30 40 -30 28 0 40 4 40 14 0 8 -6 17 -12 19 -10
4 -10 6 0 6 30 2 8 17 -28 19 -38 3 -40 2 -40 -28z m35 10 c3 -5 2 -10 -4 -10
-5 0 -13 5 -16 10 -3 6 -2 10 4 10 5 0 13 -4 16 -10z"/>
<path d="M200 285 c0 -21 27 -49 63 -66 79 -35 203 -21 324 37 l58 28 -38 4
c-22 2 -64 -6 -100 -19 -112 -39 -249 -36 -292 8 -8 8 -15 12 -15 8z"/>
</g>
</svg>
